<mxfile host="Electron" modified="2024-04-01T05:34:51.838Z" agent="Mozilla/5.0 (Windows NT 10.0; Win64; x64) AppleWebKit/537.36 (KHTML, like Gecko) draw.io/23.1.5 Chrome/120.0.6099.109 Electron/28.1.0 Safari/537.36" etag="bFfMeK89QxkWzZygTsUn" version="23.1.5" type="device">
  <diagram name="Страница — 1" id="sD7AYbrRMpH0NFCb4Lqt">
    <mxGraphModel dx="1434" dy="884" grid="1" gridSize="10" guides="1" tooltips="1" connect="1" arrows="1" fold="1" page="1" pageScale="1" pageWidth="827" pageHeight="1169" math="0" shadow="0">
      <root>
        <mxCell id="0" />
        <mxCell id="1" parent="0" />
        <mxCell id="PyZRf-cDLUBqdU33Cs7a-66" value="Потребитель" style="whiteSpace=wrap;html=1;align=center;gradientColor=none;" vertex="1" parent="1">
          <mxGeometry x="30" y="440" width="100" height="40" as="geometry" />
        </mxCell>
        <mxCell id="PyZRf-cDLUBqdU33Cs7a-67" style="edgeStyle=orthogonalEdgeStyle;rounded=0;orthogonalLoop=1;jettySize=auto;html=1;entryX=0;entryY=0.5;entryDx=0;entryDy=0;endArrow=none;endFill=0;" edge="1" parent="1" source="PyZRf-cDLUBqdU33Cs7a-73" target="PyZRf-cDLUBqdU33Cs7a-69">
          <mxGeometry relative="1" as="geometry" />
        </mxCell>
        <mxCell id="PyZRf-cDLUBqdU33Cs7a-68" value="Происходит" style="shape=rhombus;perimeter=rhombusPerimeter;whiteSpace=wrap;html=1;align=center;" vertex="1" parent="1">
          <mxGeometry x="230" y="430" width="120" height="60" as="geometry" />
        </mxCell>
        <mxCell id="PyZRf-cDLUBqdU33Cs7a-69" value="Начисление" style="whiteSpace=wrap;html=1;align=center;" vertex="1" parent="1">
          <mxGeometry x="450" y="440" width="100" height="40" as="geometry" />
        </mxCell>
        <mxCell id="PyZRf-cDLUBqdU33Cs7a-70" value="" style="endArrow=none;html=1;rounded=0;entryX=0;entryY=0.5;entryDx=0;entryDy=0;exitX=1;exitY=0.5;exitDx=0;exitDy=0;startArrow=none;startFill=0;endFill=0;" edge="1" parent="1" source="PyZRf-cDLUBqdU33Cs7a-76" target="PyZRf-cDLUBqdU33Cs7a-68">
          <mxGeometry relative="1" as="geometry">
            <mxPoint x="30" y="460" as="sourcePoint" />
            <mxPoint x="190" y="460" as="targetPoint" />
          </mxGeometry>
        </mxCell>
        <mxCell id="PyZRf-cDLUBqdU33Cs7a-71" value="" style="edgeStyle=orthogonalEdgeStyle;rounded=0;orthogonalLoop=1;jettySize=auto;html=1;entryX=0;entryY=0.5;entryDx=0;entryDy=0;endArrow=none;endFill=0;" edge="1" parent="1" source="PyZRf-cDLUBqdU33Cs7a-68" target="PyZRf-cDLUBqdU33Cs7a-73">
          <mxGeometry relative="1" as="geometry">
            <mxPoint x="350" y="460" as="sourcePoint" />
            <mxPoint x="450" y="460" as="targetPoint" />
          </mxGeometry>
        </mxCell>
        <mxCell id="PyZRf-cDLUBqdU33Cs7a-72" value="М" style="edgeLabel;html=1;align=center;verticalAlign=middle;resizable=0;points=[];" vertex="1" connectable="0" parent="PyZRf-cDLUBqdU33Cs7a-71">
          <mxGeometry x="-0.0857" relative="1" as="geometry">
            <mxPoint x="-17" y="-10" as="offset" />
          </mxGeometry>
        </mxCell>
        <mxCell id="PyZRf-cDLUBqdU33Cs7a-73" value="" style="ellipse;whiteSpace=wrap;html=1;aspect=fixed;fillColor=#000000;" vertex="1" parent="1">
          <mxGeometry x="410" y="445" width="30" height="30" as="geometry" />
        </mxCell>
        <mxCell id="PyZRf-cDLUBqdU33Cs7a-74" value="" style="endArrow=none;html=1;rounded=0;entryX=0;entryY=0.5;entryDx=0;entryDy=0;exitX=1;exitY=0.5;exitDx=0;exitDy=0;startArrow=none;startFill=0;endFill=0;" edge="1" parent="1" source="PyZRf-cDLUBqdU33Cs7a-66" target="PyZRf-cDLUBqdU33Cs7a-76">
          <mxGeometry relative="1" as="geometry">
            <mxPoint x="130" y="460" as="sourcePoint" />
            <mxPoint x="230" y="460" as="targetPoint" />
          </mxGeometry>
        </mxCell>
        <mxCell id="PyZRf-cDLUBqdU33Cs7a-75" value="1" style="edgeLabel;html=1;align=center;verticalAlign=middle;resizable=0;points=[];" vertex="1" connectable="0" parent="PyZRf-cDLUBqdU33Cs7a-74">
          <mxGeometry x="-0.0286" relative="1" as="geometry">
            <mxPoint x="85" y="-10" as="offset" />
          </mxGeometry>
        </mxCell>
        <mxCell id="PyZRf-cDLUBqdU33Cs7a-76" value="" style="ellipse;whiteSpace=wrap;html=1;aspect=fixed;fillColor=#000000;" vertex="1" parent="1">
          <mxGeometry x="140" y="445" width="30" height="30" as="geometry" />
        </mxCell>
        <mxCell id="PyZRf-cDLUBqdU33Cs7a-77" style="rounded=0;orthogonalLoop=1;jettySize=auto;html=1;entryX=0;entryY=0.5;entryDx=0;entryDy=0;endArrow=none;endFill=0;" edge="1" parent="1" source="PyZRf-cDLUBqdU33Cs7a-78" target="PyZRf-cDLUBqdU33Cs7a-84">
          <mxGeometry relative="1" as="geometry" />
        </mxCell>
        <mxCell id="PyZRf-cDLUBqdU33Cs7a-78" value="" style="ellipse;whiteSpace=wrap;html=1;aspect=fixed;fillColor=#000000;" vertex="1" parent="1">
          <mxGeometry x="140" y="380" width="30" height="30" as="geometry" />
        </mxCell>
        <mxCell id="PyZRf-cDLUBqdU33Cs7a-79" value="" style="ellipse;whiteSpace=wrap;html=1;aspect=fixed;fillColor=#000000;" vertex="1" parent="1">
          <mxGeometry x="140" y="320" width="30" height="30" as="geometry" />
        </mxCell>
        <mxCell id="PyZRf-cDLUBqdU33Cs7a-80" value="" style="ellipse;whiteSpace=wrap;html=1;aspect=fixed;fillColor=#000000;" vertex="1" parent="1">
          <mxGeometry x="140" y="260" width="30" height="30" as="geometry" />
        </mxCell>
        <mxCell id="PyZRf-cDLUBqdU33Cs7a-81" style="rounded=0;orthogonalLoop=1;jettySize=auto;html=1;entryX=0;entryY=0.5;entryDx=0;entryDy=0;endArrow=none;endFill=0;" edge="1" parent="1" source="PyZRf-cDLUBqdU33Cs7a-83" target="PyZRf-cDLUBqdU33Cs7a-88">
          <mxGeometry relative="1" as="geometry" />
        </mxCell>
        <mxCell id="PyZRf-cDLUBqdU33Cs7a-82" style="rounded=0;orthogonalLoop=1;jettySize=auto;html=1;exitX=1;exitY=0.5;exitDx=0;exitDy=0;entryX=0;entryY=0.5;entryDx=0;entryDy=0;endArrow=none;endFill=0;" edge="1" parent="1" source="PyZRf-cDLUBqdU33Cs7a-83" target="PyZRf-cDLUBqdU33Cs7a-87">
          <mxGeometry relative="1" as="geometry" />
        </mxCell>
        <mxCell id="PyZRf-cDLUBqdU33Cs7a-83" value="" style="ellipse;whiteSpace=wrap;html=1;aspect=fixed;fillColor=#000000;" vertex="1" parent="1">
          <mxGeometry x="140" y="200" width="30" height="30" as="geometry" />
        </mxCell>
        <mxCell id="PyZRf-cDLUBqdU33Cs7a-84" value="" style="ellipse;whiteSpace=wrap;html=1;aspect=fixed;fillColor=#000000;" vertex="1" parent="1">
          <mxGeometry x="410" y="380" width="30" height="30" as="geometry" />
        </mxCell>
        <mxCell id="PyZRf-cDLUBqdU33Cs7a-85" value="" style="ellipse;whiteSpace=wrap;html=1;aspect=fixed;fillColor=#000000;" vertex="1" parent="1">
          <mxGeometry x="410" y="320" width="30" height="30" as="geometry" />
        </mxCell>
        <mxCell id="PyZRf-cDLUBqdU33Cs7a-86" style="rounded=0;orthogonalLoop=1;jettySize=auto;html=1;entryX=1;entryY=0.5;entryDx=0;entryDy=0;endArrow=none;endFill=0;exitX=0;exitY=0.5;exitDx=0;exitDy=0;" edge="1" parent="1" source="PyZRf-cDLUBqdU33Cs7a-85" target="PyZRf-cDLUBqdU33Cs7a-79">
          <mxGeometry relative="1" as="geometry" />
        </mxCell>
        <mxCell id="PyZRf-cDLUBqdU33Cs7a-87" value="" style="ellipse;whiteSpace=wrap;html=1;aspect=fixed;fillColor=#000000;" vertex="1" parent="1">
          <mxGeometry x="410" y="260" width="30" height="30" as="geometry" />
        </mxCell>
        <mxCell id="PyZRf-cDLUBqdU33Cs7a-88" value="" style="ellipse;whiteSpace=wrap;html=1;aspect=fixed;fillColor=#000000;" vertex="1" parent="1">
          <mxGeometry x="410" y="200" width="30" height="30" as="geometry" />
        </mxCell>
        <mxCell id="PyZRf-cDLUBqdU33Cs7a-89" value="&lt;font style=&quot;font-size: 14px;&quot;&gt;Потребитель&lt;/font&gt;" style="text;html=1;align=center;verticalAlign=middle;resizable=0;points=[];autosize=1;strokeColor=none;fillColor=none;" vertex="1" parent="1">
          <mxGeometry x="10" y="140" width="110" height="30" as="geometry" />
        </mxCell>
        <mxCell id="PyZRf-cDLUBqdU33Cs7a-90" value="&lt;font style=&quot;font-size: 14px;&quot;&gt;Происходит&lt;/font&gt;" style="text;html=1;align=center;verticalAlign=middle;resizable=0;points=[];autosize=1;strokeColor=none;fillColor=none;" vertex="1" parent="1">
          <mxGeometry x="240" y="140" width="100" height="30" as="geometry" />
        </mxCell>
        <mxCell id="PyZRf-cDLUBqdU33Cs7a-91" value="&lt;font style=&quot;font-size: 14px;&quot;&gt;Начисление&lt;/font&gt;" style="text;html=1;align=center;verticalAlign=middle;resizable=0;points=[];autosize=1;strokeColor=none;fillColor=none;" vertex="1" parent="1">
          <mxGeometry x="450" y="140" width="100" height="30" as="geometry" />
        </mxCell>
        <mxCell id="PyZRf-cDLUBqdU33Cs7a-92" value="&lt;font style=&quot;font-size: 14px;&quot;&gt;Донец Н.О.&lt;/font&gt;" style="text;html=1;align=right;verticalAlign=middle;resizable=0;points=[];autosize=1;strokeColor=none;fillColor=none;" vertex="1" parent="1">
          <mxGeometry x="20" y="200" width="100" height="30" as="geometry" />
        </mxCell>
        <mxCell id="PyZRf-cDLUBqdU33Cs7a-93" value="&lt;span style=&quot;font-size: 14px;&quot;&gt;Иванов А.Б.&lt;/span&gt;" style="text;html=1;align=right;verticalAlign=middle;resizable=0;points=[];autosize=1;strokeColor=none;fillColor=none;" vertex="1" parent="1">
          <mxGeometry x="20" y="260" width="100" height="30" as="geometry" />
        </mxCell>
        <mxCell id="PyZRf-cDLUBqdU33Cs7a-94" value="&lt;font style=&quot;font-size: 14px;&quot;&gt;Борхес Х.Л.&lt;/font&gt;" style="text;html=1;align=right;verticalAlign=middle;resizable=0;points=[];autosize=1;strokeColor=none;fillColor=none;" vertex="1" parent="1">
          <mxGeometry x="20" y="320" width="100" height="30" as="geometry" />
        </mxCell>
        <mxCell id="PyZRf-cDLUBqdU33Cs7a-95" value="&lt;font style=&quot;font-size: 14px;&quot;&gt;Пушкин А.С.&lt;/font&gt;" style="text;html=1;align=right;verticalAlign=middle;resizable=0;points=[];autosize=1;strokeColor=none;fillColor=none;" vertex="1" parent="1">
          <mxGeometry x="20" y="380" width="100" height="30" as="geometry" />
        </mxCell>
        <mxCell id="PyZRf-cDLUBqdU33Cs7a-96" value="&lt;span style=&quot;font-size: 14px;&quot;&gt;Номер 6789&lt;/span&gt;" style="text;html=1;align=left;verticalAlign=middle;resizable=0;points=[];autosize=1;strokeColor=none;fillColor=none;" vertex="1" parent="1">
          <mxGeometry x="460" y="200" width="100" height="30" as="geometry" />
        </mxCell>
        <mxCell id="PyZRf-cDLUBqdU33Cs7a-97" value="&lt;span style=&quot;font-size: 14px;&quot;&gt;Номер 1234&lt;/span&gt;" style="text;html=1;align=left;verticalAlign=middle;resizable=0;points=[];autosize=1;strokeColor=none;fillColor=none;" vertex="1" parent="1">
          <mxGeometry x="460" y="260" width="100" height="30" as="geometry" />
        </mxCell>
        <mxCell id="PyZRf-cDLUBqdU33Cs7a-98" value="&lt;span style=&quot;font-size: 14px;&quot;&gt;Номер 4567&lt;/span&gt;" style="text;html=1;align=left;verticalAlign=middle;resizable=0;points=[];autosize=1;strokeColor=none;fillColor=none;" vertex="1" parent="1">
          <mxGeometry x="460" y="320" width="100" height="30" as="geometry" />
        </mxCell>
        <mxCell id="PyZRf-cDLUBqdU33Cs7a-99" value="&lt;span style=&quot;font-size: 14px;&quot;&gt;Номер 4513&lt;/span&gt;" style="text;html=1;align=left;verticalAlign=middle;resizable=0;points=[];autosize=1;strokeColor=none;fillColor=none;" vertex="1" parent="1">
          <mxGeometry x="460" y="380" width="100" height="30" as="geometry" />
        </mxCell>
        <mxCell id="PyZRf-cDLUBqdU33Cs7a-100" value="&lt;span style=&quot;font-size: 14px;&quot;&gt;R3&lt;/span&gt;" style="text;html=1;align=center;verticalAlign=middle;resizable=0;points=[];autosize=1;strokeColor=none;fillColor=none;" vertex="1" parent="1">
          <mxGeometry x="270" y="400" width="40" height="30" as="geometry" />
        </mxCell>
        <mxCell id="PyZRf-cDLUBqdU33Cs7a-101" value="" style="rounded=0;whiteSpace=wrap;html=1;fillColor=none;" vertex="1" parent="1">
          <mxGeometry x="400" y="440" width="50" height="40" as="geometry" />
        </mxCell>
      </root>
    </mxGraphModel>
  </diagram>
</mxfile>
